<mxfile host="app.diagrams.net" modified="2023-07-14T09:25:33.100Z" agent="Mozilla/5.0 (Windows NT 10.0; Win64; x64) AppleWebKit/537.36 (KHTML, like Gecko) Chrome/114.0.0.0 Safari/537.36 Edg/114.0.1823.67" etag="PBVuk7DueskjqEr3xPW9" version="21.6.1" type="github">
  <diagram id="6a731a19-8d31-9384-78a2-239565b7b9f0" name="Page-1">
    <mxGraphModel dx="1379" dy="764" grid="1" gridSize="10" guides="1" tooltips="1" connect="1" arrows="1" fold="1" page="1" pageScale="1" pageWidth="1169" pageHeight="827" background="none" math="0" shadow="0">
      <root>
        <mxCell id="0" />
        <mxCell id="1" parent="0" />
        <mxCell id="2" value="at time t" style="shape=mxgraph.flowchart.terminator;strokeWidth=2;gradientColor=none;gradientDirection=north;fontStyle=0;html=1;fontSize=15;fontFamily=Times New Roman;" parent="1" vertex="1">
          <mxGeometry x="262" y="40" width="128" height="40" as="geometry" />
        </mxCell>
        <mxCell id="3" value="imput grid box variables&lt;br style=&quot;font-size: 15px;&quot;&gt;" style="shape=mxgraph.flowchart.data;strokeWidth=2;gradientColor=none;gradientDirection=north;fontStyle=0;html=1;fontSize=15;fontFamily=Times New Roman;" parent="1" vertex="1">
          <mxGeometry x="225.25" y="120" width="189.5" height="80" as="geometry" />
        </mxCell>
        <mxCell id="6" value="nca&amp;gt;0.5dt" style="shape=mxgraph.flowchart.decision;strokeWidth=2;gradientColor=none;gradientDirection=north;fontStyle=0;html=1;fontSize=15;fontFamily=Times New Roman;" parent="1" vertex="1">
          <mxGeometry x="230" y="360" width="177.5" height="80" as="geometry" />
        </mxCell>
        <mxCell id="11" value="yes" style="text;fontStyle=0;html=1;strokeColor=none;gradientColor=none;fillColor=none;strokeWidth=2;fontSize=15;fontFamily=Times New Roman;" parent="1" vertex="1">
          <mxGeometry x="490" y="370" width="40" height="26" as="geometry" />
        </mxCell>
        <mxCell id="14" value="no" style="text;fontStyle=0;html=1;strokeColor=none;gradientColor=none;fillColor=none;strokeWidth=2;align=center;fontSize=15;fontFamily=Times New Roman;" parent="1" vertex="1">
          <mxGeometry x="320" y="447" width="40" height="26" as="geometry" />
        </mxCell>
        <mxCell id="19" value="" style="edgeStyle=elbowEdgeStyle;elbow=horizontal;fontStyle=1;strokeColor=#003366;strokeWidth=1;html=1;fontSize=15;fontFamily=Times New Roman;" parent="1" source="OqSVO-hzrsjVxAxLMcoM-55" edge="1">
          <mxGeometry width="100" height="100" as="geometry">
            <mxPoint x="388.395" y="740" as="sourcePoint" />
            <mxPoint x="480" y="680" as="targetPoint" />
            <Array as="points">
              <mxPoint x="410" y="680" />
            </Array>
          </mxGeometry>
        </mxCell>
        <mxCell id="23" value="" style="edgeStyle=elbowEdgeStyle;elbow=horizontal;exitX=0.5;exitY=1;exitPerimeter=0;fontStyle=1;strokeColor=#003366;strokeWidth=1;html=1;fontSize=15;fontFamily=Times New Roman;" parent="1" edge="1">
          <mxGeometry width="100" height="100" as="geometry">
            <mxPoint x="109.5" y="740" as="sourcePoint" />
            <mxPoint x="109.5" y="800" as="targetPoint" />
          </mxGeometry>
        </mxCell>
        <mxCell id="25" value="" style="edgeStyle=elbowEdgeStyle;elbow=horizontal;exitX=0.5;exitY=0.9;exitPerimeter=0;fontStyle=1;strokeColor=#003366;strokeWidth=1;html=1;" parent="1" target="24" edge="1">
          <mxGeometry width="100" height="100" as="geometry">
            <mxPoint x="320" y="1001" as="sourcePoint" />
            <mxPoint x="100" as="targetPoint" />
          </mxGeometry>
        </mxCell>
        <mxCell id="30" value="" style="edgeStyle=elbowEdgeStyle;elbow=horizontal;exitX=0.5;exitY=1;exitPerimeter=0;fontStyle=1;strokeColor=#003366;strokeWidth=1;html=1;" parent="1" target="28" edge="1">
          <mxGeometry width="100" height="100" as="geometry">
            <mxPoint x="321" y="1158.5" as="sourcePoint" />
            <mxPoint x="100" as="targetPoint" />
          </mxGeometry>
        </mxCell>
        <mxCell id="31" value="" style="edgeStyle=elbowEdgeStyle;elbow=horizontal;exitX=1;exitY=0.5;exitPerimeter=0;entryX=0;entryY=0.5;entryPerimeter=0;fontStyle=1;strokeColor=#003366;strokeWidth=1;html=1;" parent="1" target="29" edge="1">
          <mxGeometry width="100" height="100" as="geometry">
            <mxPoint x="385" y="1260" as="sourcePoint" />
            <mxPoint x="100" as="targetPoint" />
          </mxGeometry>
        </mxCell>
        <mxCell id="38" value="other physical schemes" style="shape=mxgraph.flowchart.data;strokeWidth=2;gradientColor=none;gradientDirection=north;fontStyle=0;html=1;fontSize=15;fontFamily=Times New Roman;" parent="1" vertex="1">
          <mxGeometry x="241" y="800" width="160" height="80" as="geometry" />
        </mxCell>
        <mxCell id="43" value="" style="edgeStyle=elbowEdgeStyle;elbow=vertical;exitX=0.5;exitY=1;exitPerimeter=0;fontStyle=1;strokeColor=#003366;strokeWidth=1;html=1;entryX=0.5;entryY=0;entryDx=0;entryDy=0;fontSize=15;fontFamily=Times New Roman;" parent="1" source="38" target="OqSVO-hzrsjVxAxLMcoM-71" edge="1">
          <mxGeometry width="100" height="100" as="geometry">
            <mxPoint x="-9.5" y="-480" as="sourcePoint" />
            <mxPoint x="320" y="960" as="targetPoint" />
            <Array as="points" />
          </mxGeometry>
        </mxCell>
        <mxCell id="51" value="update w0avg&lt;br style=&quot;font-size: 15px;&quot;&gt;&amp;nbsp;rthcudt/rqccudt/prate no change" style="shape=mxgraph.flowchart.paper_tape;strokeWidth=2;gradientColor=none;gradientDirection=north;fontStyle=0;html=1;fontSize=15;fontFamily=Times New Roman;" parent="1" vertex="1">
          <mxGeometry x="603" y="356" width="155" height="81" as="geometry" />
        </mxCell>
        <mxCell id="OqSVO-hzrsjVxAxLMcoM-55" value="check&amp;nbsp;CAPE/CLH&lt;br style=&quot;font-size: 15px;&quot;&gt;convection?" style="shape=mxgraph.flowchart.decision;strokeWidth=2;gradientColor=none;gradientDirection=north;fontStyle=0;html=1;fontSize=15;fontFamily=Times New Roman;" vertex="1" parent="1">
          <mxGeometry x="272" y="651.5" width="98" height="57" as="geometry" />
        </mxCell>
        <mxCell id="OqSVO-hzrsjVxAxLMcoM-56" value="" style="edgeStyle=elbowEdgeStyle;elbow=horizontal;fontStyle=1;strokeColor=#003366;strokeWidth=1;html=1;fontSize=15;fontFamily=Times New Roman;" edge="1" parent="1">
          <mxGeometry width="100" height="100" as="geometry">
            <mxPoint x="261" y="677.5" as="sourcePoint" />
            <mxPoint x="160" y="678" as="targetPoint" />
          </mxGeometry>
        </mxCell>
        <mxCell id="OqSVO-hzrsjVxAxLMcoM-57" value="no" style="text;fontStyle=0;html=1;strokeColor=none;gradientColor=none;fillColor=none;strokeWidth=2;fontSize=15;fontFamily=Times New Roman;" vertex="1" parent="1">
          <mxGeometry x="380" y="651.5" width="40" height="26" as="geometry" />
        </mxCell>
        <mxCell id="OqSVO-hzrsjVxAxLMcoM-58" value="No convection&lt;br style=&quot;font-size: 15px;&quot;&gt;update W0AVG&lt;br style=&quot;font-size: 15px;&quot;&gt;RTHCUDT/PRATE=0&lt;br style=&quot;font-size: 15px;&quot;&gt;" style="shape=mxgraph.flowchart.paper_tape;strokeWidth=2;gradientColor=none;gradientDirection=north;fontStyle=0;html=1;fontSize=15;fontFamily=Times New Roman;" vertex="1" parent="1">
          <mxGeometry x="486" y="639.5" width="155" height="81" as="geometry" />
        </mxCell>
        <mxCell id="OqSVO-hzrsjVxAxLMcoM-60" value="yes" style="text;fontStyle=0;html=1;strokeColor=none;gradientColor=none;fillColor=none;strokeWidth=2;fontSize=15;fontFamily=Times New Roman;" vertex="1" parent="1">
          <mxGeometry x="210" y="651.5" width="40" height="26" as="geometry" />
        </mxCell>
        <mxCell id="OqSVO-hzrsjVxAxLMcoM-63" value="&amp;nbsp;convection triggered&lt;br style=&quot;font-size: 15px;&quot;&gt;update W0AVG&lt;br style=&quot;font-size: 15px;&quot;&gt;feed back RTHCUDT/PRATE/NCA&lt;br style=&quot;font-size: 15px;&quot;&gt;" style="shape=mxgraph.flowchart.paper_tape;strokeWidth=2;gradientColor=none;gradientDirection=north;fontStyle=0;html=1;fontSize=15;fontFamily=Times New Roman;" vertex="1" parent="1">
          <mxGeometry x="40" y="800" width="155" height="81" as="geometry" />
        </mxCell>
        <mxCell id="OqSVO-hzrsjVxAxLMcoM-64" value="calculate TIMEC, NCA,RTHCUDT,PRATE" style="shape=parallelogram;perimeter=parallelogramPerimeter;whiteSpace=wrap;html=1;fixedSize=1;fontSize=15;fontFamily=Times New Roman;" vertex="1" parent="1">
          <mxGeometry x="50" y="660.5" width="120" height="60" as="geometry" />
        </mxCell>
        <mxCell id="OqSVO-hzrsjVxAxLMcoM-65" value="" style="edgeStyle=elbowEdgeStyle;elbow=horizontal;exitX=1.013;exitY=0.42;exitPerimeter=0;fontStyle=1;strokeColor=#003366;strokeWidth=1;html=1;exitDx=0;exitDy=0;fontSize=15;fontFamily=Times New Roman;" edge="1" parent="1" source="OqSVO-hzrsjVxAxLMcoM-63">
          <mxGeometry width="100" height="100" as="geometry">
            <mxPoint x="229.5" y="800" as="sourcePoint" />
            <mxPoint x="250" y="834" as="targetPoint" />
          </mxGeometry>
        </mxCell>
        <mxCell id="OqSVO-hzrsjVxAxLMcoM-66" value="" style="edgeStyle=elbowEdgeStyle;elbow=horizontal;fontStyle=1;strokeColor=#003366;strokeWidth=1;html=1;fontSize=15;fontFamily=Times New Roman;" edge="1" parent="1">
          <mxGeometry width="100" height="100" as="geometry">
            <mxPoint x="410" y="399.5" as="sourcePoint" />
            <mxPoint x="600" y="400" as="targetPoint" />
            <Array as="points">
              <mxPoint x="450" y="399.5" />
            </Array>
          </mxGeometry>
        </mxCell>
        <mxCell id="OqSVO-hzrsjVxAxLMcoM-67" value="" style="edgeStyle=segmentEdgeStyle;endArrow=classic;html=1;curved=0;rounded=0;endSize=8;startSize=8;exitX=0.568;exitY=0.864;exitDx=0;exitDy=0;exitPerimeter=0;fontSize=15;fontFamily=Times New Roman;" edge="1" parent="1" source="51" target="38">
          <mxGeometry width="50" height="50" relative="1" as="geometry">
            <mxPoint x="670" y="460" as="sourcePoint" />
            <mxPoint x="410" y="863.78" as="targetPoint" />
            <Array as="points">
              <mxPoint x="691" y="850" />
            </Array>
          </mxGeometry>
        </mxCell>
        <mxCell id="OqSVO-hzrsjVxAxLMcoM-68" value="" style="edgeStyle=segmentEdgeStyle;endArrow=classic;html=1;curved=0;rounded=0;endSize=8;startSize=8;fontSize=15;fontFamily=Times New Roman;" edge="1" parent="1">
          <mxGeometry width="50" height="50" relative="1" as="geometry">
            <mxPoint x="590" y="730" as="sourcePoint" />
            <mxPoint x="440" y="827" as="targetPoint" />
            <Array as="points">
              <mxPoint x="590" y="827" />
            </Array>
          </mxGeometry>
        </mxCell>
        <mxCell id="OqSVO-hzrsjVxAxLMcoM-73" style="edgeStyle=orthogonalEdgeStyle;rounded=0;orthogonalLoop=1;jettySize=auto;html=1;fontSize=15;fontFamily=Times New Roman;" edge="1" parent="1">
          <mxGeometry relative="1" as="geometry">
            <mxPoint x="397" y="60" as="targetPoint" />
            <mxPoint x="369" y="1010" as="sourcePoint" />
            <Array as="points">
              <mxPoint x="827" y="1010" />
              <mxPoint x="827" y="60" />
            </Array>
          </mxGeometry>
        </mxCell>
        <mxCell id="OqSVO-hzrsjVxAxLMcoM-71" value="advance one time step&lt;br style=&quot;border-color: var(--border-color); font-size: 15px;&quot;&gt;NCA decrease one time step&amp;nbsp;" style="rounded=1;whiteSpace=wrap;html=1;absoluteArcSize=1;arcSize=14;strokeWidth=2;fontSize=15;fontFamily=Times New Roman;" vertex="1" parent="1">
          <mxGeometry x="272" y="980" width="100" height="100" as="geometry" />
        </mxCell>
        <mxCell id="OqSVO-hzrsjVxAxLMcoM-75" value="" style="endArrow=classic;html=1;rounded=0;fontSize=15;fontFamily=Times New Roman;" edge="1" parent="1">
          <mxGeometry width="50" height="50" relative="1" as="geometry">
            <mxPoint x="321.5" y="80" as="sourcePoint" />
            <mxPoint x="322" y="120" as="targetPoint" />
          </mxGeometry>
        </mxCell>
        <mxCell id="OqSVO-hzrsjVxAxLMcoM-76" value="" style="endArrow=classic;html=1;rounded=0;fontSize=15;fontFamily=Times New Roman;" edge="1" parent="1">
          <mxGeometry width="50" height="50" relative="1" as="geometry">
            <mxPoint x="320.5" y="199" as="sourcePoint" />
            <mxPoint x="321" y="239" as="targetPoint" />
          </mxGeometry>
        </mxCell>
        <mxCell id="OqSVO-hzrsjVxAxLMcoM-77" value="check activation status" style="shape=mxgraph.flowchart.data;strokeWidth=2;gradientColor=none;gradientDirection=north;fontStyle=0;html=1;fontSize=15;fontFamily=Times New Roman;" vertex="1" parent="1">
          <mxGeometry x="225.25" y="240" width="189.5" height="80" as="geometry" />
        </mxCell>
        <mxCell id="OqSVO-hzrsjVxAxLMcoM-79" value="" style="endArrow=classic;html=1;rounded=0;fontSize=15;fontFamily=Times New Roman;" edge="1" parent="1">
          <mxGeometry width="50" height="50" relative="1" as="geometry">
            <mxPoint x="318.5" y="321" as="sourcePoint" />
            <mxPoint x="319" y="361" as="targetPoint" />
          </mxGeometry>
        </mxCell>
        <mxCell id="OqSVO-hzrsjVxAxLMcoM-81" value="" style="endArrow=classic;html=1;rounded=0;fontSize=15;fontFamily=Times New Roman;" edge="1" parent="1">
          <mxGeometry width="50" height="50" relative="1" as="geometry">
            <mxPoint x="318.5" y="441" as="sourcePoint" />
            <mxPoint x="319" y="481" as="targetPoint" />
          </mxGeometry>
        </mxCell>
        <mxCell id="OqSVO-hzrsjVxAxLMcoM-82" value="" style="endArrow=classic;html=1;rounded=0;fontSize=15;fontFamily=Times New Roman;" edge="1" parent="1">
          <mxGeometry width="50" height="50" relative="1" as="geometry">
            <mxPoint x="950" y="440" as="sourcePoint" />
            <mxPoint x="950.5" y="480" as="targetPoint" />
          </mxGeometry>
        </mxCell>
        <mxCell id="OqSVO-hzrsjVxAxLMcoM-85" value="one -dimension cloud model&lt;br style=&quot;border-color: var(--border-color);&quot;&gt;calculate cloud properties&lt;br style=&quot;border-color: var(--border-color);&quot;&gt;LCL/LET/CAPE/CLH/UDF" style="shape=mxgraph.flowchart.data;strokeWidth=2;gradientColor=none;gradientDirection=north;fontStyle=0;html=1;fontSize=15;fontFamily=Times New Roman;" vertex="1" parent="1">
          <mxGeometry x="224" y="480" width="189.5" height="80" as="geometry" />
        </mxCell>
        <mxCell id="OqSVO-hzrsjVxAxLMcoM-86" value="" style="shape=mxgraph.flowchart.data;strokeWidth=2;gradientColor=none;gradientDirection=north;fontStyle=0;html=1;fontSize=15;fontFamily=Times New Roman;" vertex="1" parent="1">
          <mxGeometry x="880" y="90" width="189.5" height="80" as="geometry" />
        </mxCell>
        <mxCell id="OqSVO-hzrsjVxAxLMcoM-87" value="" style="shape=mxgraph.flowchart.data;strokeWidth=2;gradientColor=none;gradientDirection=north;fontStyle=0;html=1;fontSize=15;fontFamily=Times New Roman;" vertex="1" parent="1">
          <mxGeometry x="860" y="190" width="189.5" height="80" as="geometry" />
        </mxCell>
        <mxCell id="OqSVO-hzrsjVxAxLMcoM-88" value="" style="shape=mxgraph.flowchart.data;strokeWidth=2;gradientColor=none;gradientDirection=north;fontStyle=0;html=1;fontSize=15;fontFamily=Times New Roman;" vertex="1" parent="1">
          <mxGeometry x="850" y="280" width="189.5" height="80" as="geometry" />
        </mxCell>
        <mxCell id="OqSVO-hzrsjVxAxLMcoM-89" value="" style="endArrow=classic;html=1;rounded=0;fontSize=15;fontFamily=Times New Roman;" edge="1" parent="1">
          <mxGeometry width="50" height="50" relative="1" as="geometry">
            <mxPoint x="960" y="450" as="sourcePoint" />
            <mxPoint x="960.5" y="490" as="targetPoint" />
          </mxGeometry>
        </mxCell>
        <mxCell id="OqSVO-hzrsjVxAxLMcoM-90" value="" style="endArrow=classic;html=1;rounded=0;fontSize=15;fontFamily=Times New Roman;" edge="1" parent="1">
          <mxGeometry width="50" height="50" relative="1" as="geometry">
            <mxPoint x="970" y="460" as="sourcePoint" />
            <mxPoint x="970.5" y="500" as="targetPoint" />
          </mxGeometry>
        </mxCell>
        <mxCell id="OqSVO-hzrsjVxAxLMcoM-91" value="" style="endArrow=classic;html=1;rounded=0;fontSize=15;fontFamily=Times New Roman;" edge="1" parent="1">
          <mxGeometry width="50" height="50" relative="1" as="geometry">
            <mxPoint x="980" y="470" as="sourcePoint" />
            <mxPoint x="980.5" y="510" as="targetPoint" />
          </mxGeometry>
        </mxCell>
        <mxCell id="OqSVO-hzrsjVxAxLMcoM-92" value="" style="endArrow=classic;html=1;rounded=0;fontSize=15;fontFamily=Times New Roman;" edge="1" parent="1">
          <mxGeometry width="50" height="50" relative="1" as="geometry">
            <mxPoint x="320" y="560" as="sourcePoint" />
            <mxPoint x="320.5" y="600" as="targetPoint" />
          </mxGeometry>
        </mxCell>
        <mxCell id="OqSVO-hzrsjVxAxLMcoM-93" value="" style="shape=mxgraph.flowchart.decision;strokeWidth=2;gradientColor=none;gradientDirection=north;fontStyle=0;html=1;fontSize=15;fontFamily=Times New Roman;" vertex="1" parent="1">
          <mxGeometry x="960" y="370" width="177.5" height="80" as="geometry" />
        </mxCell>
        <mxCell id="OqSVO-hzrsjVxAxLMcoM-94" value="" style="shape=mxgraph.flowchart.decision;strokeWidth=2;gradientColor=none;gradientDirection=north;fontStyle=0;html=1;fontSize=15;fontFamily=Times New Roman;" vertex="1" parent="1">
          <mxGeometry x="892" y="580.5" width="177.5" height="80" as="geometry" />
        </mxCell>
      </root>
    </mxGraphModel>
  </diagram>
</mxfile>
